PathFileType	4	(X/Y/Z)	C:/Users/opensim2020/Desktop/walking_exp_matlab/subject01_walking12_straight_01.trc	
DataRate	CameraRate	NumFrames	NumMarkers	Units	OrigDataRate	OrigDataStartFrame	OrigNumFrames	
100.00	100.00	7	44	mm	100.00	643	193	
Frame#	Time	LFHD			RFHD			LBHD			RBHD			C7			T10			CLAV			STRN			RBAK			LSHO			LUPA			LELB			LFRM			LWRA			LWRB			LFIN			RSHO			RUPA			RELB			RFRM			RWRA			RWRB			RFIN			LASI			RASI			LPSI			RPSI			LTHI			LKNE			LTIB			LANK			LHEE			LTOE			RTHI			RKNE			RTIB			RANK			RHEE			RTOE			*39			*40			*41			*42			*43			
		X1	Y1	Z1	X2	Y2	Z2	X3	Y3	Z3	X4	Y4	Z4	X5	Y5	Z5	X6	Y6	Z6	X7	Y7	Z7	X8	Y8	Z8	X9	Y9	Z9	X10	Y10	Z10	X11	Y11	Z11	X12	Y12	Z12	X13	Y13	Z13	X14	Y14	Z14	X15	Y15	Z15	X16	Y16	Z16	X17	Y17	Z17	X18	Y18	Z18	X19	Y19	Z19	X20	Y20	Z20	X21	Y21	Z21	X22	Y22	Z22	X23	Y23	Z23	X24	Y24	Z24	X25	Y25	Z25	X26	Y26	Z26	X27	Y27	Z27	X28	Y28	Z28	X29	Y29	Z29	X30	Y30	Z30	X31	Y31	Z31	X32	Y32	Z32	X33	Y33	Z33	X34	Y34	Z34	X35	Y35	Z35	X36	Y36	Z36	X37	Y37	Z37	X38	Y38	Z38	X39	Y39	Z39	X40	Y40	Z40	X41	Y41	Z41	X42	Y42	Z42	X43	Y43	Z43	X44	Y44	Z44	

25	0.240	-1062.96570	-799.80872	1679.25037	-949.52551	-793.40900	1681.85876	-1064.22485	-906.13403	1613.32983	-943.76227	-901.90527	1613.61401	-1023.46204	-918.27295	1432.98364	-1011.88770	-960.68433	1141.55933	-1021.15375	-775.09894	1361.90234	-1026.14758	-736.98590	1204.81287	-943.90009	-976.54364	1240.52832	-1181.47534	-837.44873	1391.18262	-1264.36011	-866.61682	1207.54456	-1267.25232	-870.35614	1054.32935	-1295.17102	-811.09546	956.41846	-1284.56152	-706.65070	864.49646	-1304.05884	-760.16864	845.07208	-1317.98462	-697.32135	790.50220	-869.52496	-837.72034	1390.73486	-767.00934	-902.59521	1193.45032	-766.23486	-910.49390	1068.85205	-742.13226	-892.14917	948.62958	-776.14148	-830.29352	824.12891	-730.11279	-866.77930	828.99127	-737.55353	-838.82910	748.82764	-1120.17041	-798.85168	924.08966	-904.06250	-794.72040	929.90363	-1066.21704	-983.21985	945.46777	-920.65540	-979.65997	952.15350	-1185.28564	-802.73975	594.28125	-1178.10425	-804.93903	461.41205	-1188.11169	-954.61865	355.09409	-1139.61804	-1128.98743	225.12668	-1082.36633	-1174.63159	238.59955	-1148.95056	-1084.41162	83.72315	-853.56970	-833.49237	599.33997	-885.36237	-810.95129	443.10611	-882.48669	-858.12286	272.46753	-934.87988	-880.26074	70.06966	-984.38910	-929.87000	31.21901	-936.81073	-739.83026	32.57525	-970.81519	-810.52460	1713.63562	-3101.90454	1973.12817	1023.47534	-3140.75049	2012.47083	1022.00439						 
26	0.250	-1063.22314	-790.64508	1679.53845	-949.86017	-783.87823	1682.29126	-1063.83972	-897.47339	1614.39063	-943.41223	-892.72662	1614.92383	-1022.88409	-910.47809	1433.46606	-1011.29181	-952.62976	1141.95996	-1020.42810	-767.27722	1362.40613	-1025.47107	-729.06366	1205.43115	-943.06537	-968.46686	1241.06555	-1181.03381	-829.79871	1391.70569	-1263.24829	-859.53363	1207.68835	-1264.69849	-864.69757	1054.52234	-1292.76123	-807.63666	955.34357	-1282.93518	-704.98389	861.40082	-1301.69019	-759.16101	843.07019	-1315.99683	-697.67010	786.93518	-869.10394	-830.11005	1391.59204	-765.84973	-892.09015	1193.89294	-764.65112	-898.52094	1069.06860	-740.84235	-878.15533	949.16284	-775.68536	-814.90814	825.61005	-729.20862	-850.72125	829.85132	-736.90234	-821.44312	750.33350	-1119.13562	-790.47430	925.02362	-903.01648	-787.24744	930.08203	-1066.90039	-974.73273	946.35223	-921.28479	-972.10065	952.58820	-1184.72937	-786.99005	596.45294	-1176.99133	-786.12140	463.66071	-1186.87048	-934.79755	356.07397	-1138.02759	-1108.58179	224.82832	-1080.76270	-1154.80994	237.06502	-1148.39111	-1059.87988	84.80415	-853.67163	-828.68512	598.97504	-885.56042	-807.94122	442.65698	-882.74225	-856.31781	272.62088	-935.14667	-879.52954	69.93126	-984.51501	-929.75317	31.32286	-936.85895	-739.69751	32.57547	-971.06531	-800.78082	1714.14758	-3101.89038	1973.13464	1023.76434	-3140.75122	2012.47302	1022.05054						 
27	0.260	-1063.38599	-781.51135	1679.60815	-950.13013	-774.12097	1682.76831	-1063.56787	-888.74127	1615.42822	-943.18378	-883.50098	1616.18457	-1022.43262	-902.65588	1433.88904	-1010.78357	-944.60504	1142.29932	-1020.01190	-759.50879	1362.99548	-1024.75586	-721.06964	1206.01025	-942.28601	-960.46246	1241.53638	-1180.70557	-822.12732	1392.18652	-1262.25562	-852.40967	1207.77356	-1262.15710	-859.01160	1054.71008	-1290.51758	-804.57922	954.50531	-1281.43054	-703.45502	858.38611	-1299.25146	-758.30823	841.03320	-1314.14172	-698.38324	783.51324	-868.76880	-822.17719	1392.29028	-764.64709	-881.54266	1194.30005	-763.14288	-886.65161	1069.33386	-739.64166	-864.05389	949.58374	-775.15649	-799.26978	827.13263	-728.23071	-835.20966	830.98755	-736.29761	-803.75476	751.71039	-1118.28479	-781.78748	926.06549	-902.01477	-779.78229	930.17493	-1067.47461	-965.81561	947.22058	-921.95654	-964.42395	953.03687	-1184.27368	-771.59253	598.85242	-1175.97278	-767.98322	466.17206	-1185.49548	-915.36987	356.97165	-1136.72192	-1087.41870	223.72498	-1079.34387	-1134.30994	234.47832	-1148.33923	-1034.80603	86.04005	-853.86115	-824.71466	598.85596	-885.67426	-804.30322	442.07730	-882.87482	-854.19183	272.49747	-935.38550	-879.24329	70.12704	-984.28583	-930.20984	32.35709	-936.93463	-739.61322	32.56172	-971.43329	-790.59259	1714.72314	-3101.58887	1973.16699	1023.61658	-3140.76880	2012.55164	1022.20538						 
28	0.270	-1063.94141	-772.19635	1679.89490	-950.61719	-764.38788	1683.12585	-1063.42212	-879.99963	1616.41968	-943.05109	-874.25665	1617.41785	-1022.11353	-895.15759	1434.31067	-1010.26050	-936.58093	1142.57263	-1020.12378	-751.63751	1363.54907	-1024.18152	-713.05292	1206.57996	-941.58923	-952.34772	1241.90588	-1180.50647	-814.41772	1392.54895	-1261.30164	-845.25110	1207.81494	-1259.64893	-853.35834	1054.91785	-1288.16248	-801.35901	953.55090	-1280.16870	-702.01257	855.41919	-1297.10718	-757.77942	839.27179	-1312.01611	-698.98535	779.96643	-868.70441	-813.73077	1392.82983	-763.68927	-871.16040	1194.73169	-761.75775	-874.73987	1069.53931	-738.47559	-849.97864	950.14252	-774.56403	-783.52490	828.81635	-727.31311	-818.69824	831.95624	-735.49597	-786.29468	753.45404	-1117.34631	-773.27325	927.03143	-901.04181	-772.20294	930.26752	-1068.40161	-957.64093	948.04004	-922.50964	-957.60602	953.97455	-1183.83594	-756.42596	601.41992	-1175.00903	-750.30963	468.95740	-1184.20154	-896.17365	357.65640	-1135.57556	-1065.80762	221.57660	-1078.03064	-1113.19507	230.47661	-1148.06213	-1008.51379	85.78987	-854.09528	-819.85852	598.36627	-885.89868	-801.57776	441.64801	-883.27509	-852.65955	272.35907	-935.62927	-879.27332	70.39932	-984.42987	-930.15375	32.53326	-937.03601	-739.45306	32.54378	-971.73853	-780.87891	1715.36462	-3102.73560	1972.84119	1024.04565	-3140.75415	2012.51355	1022.19867						 
29	0.280	-1064.36462	-762.91443	1679.89807	-951.21240	-754.59845	1683.30188	-1063.39734	-871.19000	1617.41016	-943.03064	-864.99469	1618.66125	-1021.88031	-887.00146	1434.54077	-1009.73901	-928.50171	1142.83594	-1019.93005	-743.82056	1364.03259	-1023.57623	-705.02985	1207.10754	-940.86749	-944.25696	1242.25940	-1180.38806	-806.64459	1392.84009	-1260.42444	-838.09631	1207.82349	-1257.27832	-847.71747	1055.12830	-1285.88757	-798.20319	952.88007	-1278.94214	-700.67725	852.51691	-1294.79492	-757.03131	837.50000	-1310.13257	-699.96527	776.62231	-868.33069	-806.49896	1393.66125	-762.75830	-860.77423	1195.22974	-760.52014	-862.85950	1069.73828	-737.34973	-836.03857	950.84674	-773.89319	-767.67957	830.59161	-726.42834	-802.96649	833.08270	-734.71118	-769.08282	755.37988	-1116.42712	-764.76581	927.98413	-900.23688	-764.44348	930.61548	-1068.93945	-949.20361	948.88947	-923.17499	-949.52203	954.30609	-1183.56091	-742.03467	604.17126	-1174.01892	-733.20709	471.89731	-1182.99292	-877.18121	358.04413	-1134.62537	-1043.69031	218.28214	-1077.03772	-1091.63098	225.56076	-1147.94421	-981.54376	85.00114	-854.33911	-815.20306	597.92090	-885.88110	-798.48468	441.02219	-883.58734	-850.80316	272.21774	-935.83856	-879.04858	70.50206	-984.60278	-930.04523	32.71917	-936.81122	-739.50745	32.85198	-972.20129	-770.92645	1715.88025	-3102.80981	1972.83325	1024.04089	-3138.54688	2013.08801	1022.38177						 
30	0.290	-1065.07471	-753.49365	1680.02246	-952.12463	-744.90637	1683.26953	-1063.48523	-862.33051	1618.29993	-943.15424	-855.72675	1619.81628	-1021.67883	-879.10779	1434.82703	-1009.20544	-920.41980	1143.08008	-1019.36371	-735.96198	1364.28467	-1023.05585	-696.97272	1207.57556	-940.27386	-936.11108	1242.54663	-1180.31787	-798.82660	1393.13574	-1259.82068	-830.94147	1207.84778	-1254.92261	-841.98627	1055.26538	-1283.64893	-794.97894	952.13940	-1277.80298	-699.36896	849.78430	-1292.54065	-756.31824	835.85315	-1308.29919	-700.94751	773.42023	-868.37878	-798.09143	1394.26147	-761.89795	-850.47424	1195.71948	-759.36646	-851.10431	1070.00781	-736.27441	-822.05524	951.52289	-773.29132	-751.89233	832.61932	-725.36694	-786.40002	834.45605	-734.21503	-751.05353	757.38379	-1115.59680	-756.20868	928.96442	-898.99329	-756.45367	930.32245	-1069.43433	-940.82141	949.62231	-923.62793	-941.50183	954.49652	-1183.18677	-727.10413	607.00977	-1173.31213	-716.70197	474.94830	-1181.89563	-858.29712	358.10956	-1133.83118	-1021.06061	214.00764	-1076.15259	-1069.43726	219.34030	-1148.01379	-953.98553	83.63057	-854.43781	-810.91437	597.60864	-885.78870	-795.74133	440.54755	-883.73645	-849.45483	272.21411	-936.00122	-878.76007	70.44498	-984.76929	-930.05347	32.95721	-936.78552	-739.49487	32.84747	-973.19543	-760.96625	1715.87207	-3102.83716	1972.82581	1023.92834									 
31	0.300	-1065.66614	-744.19482	1679.81018	-952.58643	-734.73462	1684.11084	-1063.69226	-853.41241	1619.05518	-943.36725	-846.44824	1620.85242	-1021.60803	-870.95502	1434.87219	-1008.66821	-912.40997	1143.34546	-1019.60004	-728.02802	1364.65442	-1022.67688	-688.85803	1207.93152	-939.68341	-927.96204	1242.75073	-1180.12878	-790.93640	1393.24084	-1258.89636	-823.92993	1207.74207	-1252.60303	-836.10730	1055.31128	-1281.47778	-791.70593	951.27185	-1276.73938	-698.08545	847.05060	-1290.29773	-755.54688	834.25806	-1306.59216	-701.92133	770.44250	-868.26599	-790.13837	1394.58789	-761.21924	-840.36908	1196.09741	-758.29633	-839.35828	1070.28101	-735.24988	-808.03632	952.20538	-772.29425	-735.81067	834.52905	-724.40961	-770.31152	835.90106	-732.95593	-733.68030	759.49670	-1114.84753	-747.74036	929.86658	-898.27405	-748.80945	930.24097	-1069.73169	-932.48468	950.27094	-924.00763	-933.66241	954.70990	-1182.65491	-712.77460	609.99762	-1172.17200	-700.30243	478.06561	-1180.85693	-839.55920	357.91666	-1133.20508	-997.83307	208.81870	-1075.47327	-1046.55518	212.04776	-1148.26379	-925.54211	81.63466	-854.40881	-806.67334	597.27478	-886.37274	-792.89410	439.98532	-883.78564	-847.83905	272.27640	-936.13763	-878.50464	70.66029	-984.87506	-930.44946	33.38158	-936.76160	-739.41486	32.83398	-974.02930	-751.07404	1716.06921	-3102.46216	1973.06750	1024.06982	-3138.51807	2013.09814	1022.43115						 
